<?xml version="1.0" encoding="UTF-8" standalone="no"?>
<svg
   xmlns:dc="http://purl.org/dc/elements/1.1/"
   xmlns:cc="http://creativecommons.org/ns#"
   xmlns:rdf="http://www.w3.org/1999/02/22-rdf-syntax-ns#"
   xmlns:svg="http://www.w3.org/2000/svg"
   xmlns="http://www.w3.org/2000/svg"
   xmlns:sodipodi="http://sodipodi.sourceforge.net/DTD/sodipodi-0.dtd"
   xmlns:inkscape="http://www.inkscape.org/namespaces/inkscape"
   id="svglogo"
   x="0px"
   y="0px"
   viewBox="0 0 140 74"
   version="1.1"
   inkscape:version="0.91 r13725"
   sodipodi:docname="Solution(min).svg"
   inkscape:export-filename="/home/vedant/Desktop/SVG/lOGO/Solution.png"
   inkscape:export-xdpi="90.300003"
   inkscape:export-ydpi="90.300003">
  <metadata
     id="metadata5863">
    <rdf:RDF>
      <cc:Work
         rdf:about="">
        <dc:format>image/svg+xml</dc:format>
        <dc:type
           rdf:resource="http://purl.org/dc/dcmitype/StillImage" />
        <dc:title></dc:title>
      </cc:Work>
    </rdf:RDF>
  </metadata>
  <defs
     id="defs5861" />
  <sodipodi:namedview
     pagecolor="#ffffff"
     bordercolor="#666666"
     borderopacity="1"
     objecttolerance="10"
     gridtolerance="10"
     guidetolerance="10"
     inkscape:pageopacity="0"
     inkscape:pageshadow="2"
     inkscape:window-width="1366"
     inkscape:window-height="744"
     id="namedview5859"
     showgrid="false"
     inkscape:zoom="6.1013213"
     inkscape:cx="56.282238"
     inkscape:cy="40.213456"
     inkscape:window-x="0"
     inkscape:window-y="24"
     inkscape:window-maximized="1"
     inkscape:current-layer="g5819" />
  <style
     type="text/css"
     id="style5815">
                            .st0{fill:#00aeef;}
                            .st1{fill:#FFFFFF;fill-opacity:0;}
                        </style>
  <g
     id="g5817"
     transform="translate(0.5736468,-1.065343)">
    <g
       id="g5819"
       transform="translate(2.1029039,0.85139517)">
      <g
         id="dotsAll">
        <polygon
           id="dotStrategy"
           class="st0"
           points="78.5,19.4 74.3,20.2 74.3,24.3 78.5,23.5 "
           style="fill:#00aeef"
           transform="matrix(1.5510641,0,0,1.2969809,-52.908683,-6.3069534)" />
      </g>
      <g
         id="logoAll">
        <path
           d="m 46.588033,22.511121 4.261503,-1.276965 0,6.384837 5.682005,-1.276969 0,5.746349 -5.682005,1.276969 0,13.408156 c 0,1.276963 0.947002,1.91545 1.894002,1.91545 l 6.155506,-1.27697 0,5.107875 -6.155506,1.276964 c -3.314502,1.276965 -5.682002,-1.276964 -5.682002,-5.746356 l -0.473503,-25.53934 0,0 z"
           class="st0"
           id="t"
           inkscape:connector-curvature="0"
           style="fill:#00aeef" />
      </g>
      <polygon
         id="dotStrategy-3"
         class="st0"
         points="78.5,23.5 78.5,19.4 74.3,20.2 74.3,24.3 "
         style="fill:#00aeef"
         transform="matrix(1.4682826,0,0,1.3679364,-38.595063,-8.986721)" />
      <polygon
         id="dotStrategy-6"
         class="st0"
         points="78.5,19.4 74.3,20.2 74.3,24.3 78.5,23.5 "
         style="fill:#00aeef"
         transform="matrix(1.4682826,0,0,1.3679364,-38.648478,-16.132383)" />
    </g>
  </g>
  <g
     id="Layer_2">
    <path
       id="c_leftbracket"
       class="st1"
       d="M21.8,46c0.8,0,1.5,0.7,1.5,1.5S22.6,49,21.8,49s-1.5-0.7-1.5-1.5S21,46,21.8,46z" />
    <path
       id="c_e3"
       class="st1"
       d="M38.8,44c0.8,0,1.5,0.7,1.5,1.5S39.6,47,38.8,47s-1.5-0.7-1.5-1.5S38,44,38.8,44z" />
    <path
       id="c_n1"
       class="st1"
       d="M60.8,41c0.8,0,1.5,0.7,1.5,1.5S61.6,44,60.8,44s-1.5-0.7-1.5-1.5S60,41,60.8,41z" />
    <path
       id="c_j1"
       class="st1"
       d="M76.8,48c0.8,0,1.5,0.7,1.5,1.5S77.6,51,76.8,51s-1.5-0.7-1.5-1.5S76,48,76.8,48z" />
    <path
       id="c_i2"
       class="st1"
       d="M84.8,31c0.8,0,1.5,0.7,1.5,1.5S85.6,34,84.8,34s-1.5-0.7-1.5-1.5S84,31,84.8,31z" />
    <path
       id="c_n2"
       class="st1"
       d="M99.8,37c0.8,0,1.5,0.7,1.5,1.5s-0.7,1.5-1.5,1.5s-1.5-0.7-1.5-1.5S99,37,99.8,37z" />
    <path
       id="c_rightbracket"
       class="st1"
       d="M115.8,30c0.8,0,1.5,0.7,1.5,1.5s-0.7,1.5-1.5,1.5s-1.5-0.7-1.5-1.5S115,30,115.8,30z" />
    <path
       id="c_e1"
       class="st1"
       d="M30.8,21c0.8,0,1.5,0.7,1.5,1.5S31.6,24,30.8,24s-1.5-0.7-1.5-1.5S30,21,30.8,21z" />
    <path
       id="c_l1"
       class="st1"
       d="M37.8,19c0.8,0,1.5,0.7,1.5,1.5S38.6,22,37.8,22s-1.5-0.7-1.5-1.5S37,19,37.8,19z" />
    <path
       id="c_e2"
       class="st1"
       d="M43.8,18c0.8,0,1.5,0.7,1.5,1.5S44.6,21,43.8,21s-1.5-0.7-1.5-1.5S43,18,43.8,18z" />
    <path
       id="c_c1"
       class="st1"
       d="M51.8,17c0.8,0,1.5,0.7,1.5,1.5S52.6,20,51.8,20s-1.5-0.7-1.5-1.5S51,17,51.8,17z" />
    <path
       id="c_t1"
       class="st1"
       d="M57.8,15c0.8,0,1.5,0.7,1.5,1.5c0,0.8-0.7,1.5-1.5,1.5s-1.5-0.7-1.5-1.5C56.3,15.7,57,15,57.8,15z" />
    <path
       id="c_r1"
       class="st1"
       d="M64.8,14c0.8,0,1.5,0.7,1.5,1.5c0,0.8-0.7,1.5-1.5,1.5c-0.8,0-1.5-0.7-1.5-1.5C63.3,14.7,64,14,64.8,14z" />
    <path
       id="c_i1a"
       class="st1"
       d="M69.8,14c0.8,0,1.5,0.7,1.5,1.5c0,0.8-0.7,1.5-1.5,1.5s-1.5-0.7-1.5-1.5C68.3,14.7,69,14,69.8,14z" />
    <path
       id="c_i1b"
       class="st1"
       d="M69.8,10c0.8,0,1.5,0.7,1.5,1.5S70.6,13,69.8,13s-1.5-0.7-1.5-1.5S69,10,69.8,10z" />
    <path
       id="c_c2"
       class="st1"
       d="M75.8,12c0.8,0,1.5,0.7,1.5,1.5S76.6,15,75.8,15s-1.5-0.7-1.5-1.5S75,12,75.8,12z" />
  </g>
</svg>
