<?xml version="1.0" encoding="UTF-8" standalone="no"?>
<svg
   xmlns:dc="http://purl.org/dc/elements/1.1/"
   xmlns:cc="http://creativecommons.org/ns#"
   xmlns:rdf="http://www.w3.org/1999/02/22-rdf-syntax-ns#"
   xmlns:svg="http://www.w3.org/2000/svg"
   xmlns="http://www.w3.org/2000/svg"
   xmlns:sodipodi="http://sodipodi.sourceforge.net/DTD/sodipodi-0.dtd"
   xmlns:inkscape="http://www.inkscape.org/namespaces/inkscape"
   id="svglogo"
   x="0px"
   y="0px"
   viewBox="0 0 140 74"
   version="1.1"
   inkscape:version="0.91 r13725"
   sodipodi:docname="Solution.svg"
   inkscape:export-filename="/home/vedant/Desktop/SVG/lOGO/Solution.png"
   inkscape:export-xdpi="90.300003"
   inkscape:export-ydpi="90.300003">
  <metadata
     id="metadata5863">
    <rdf:RDF>
      <cc:Work
         rdf:about="">
        <dc:format>image/svg+xml</dc:format>
        <dc:type
           rdf:resource="http://purl.org/dc/dcmitype/StillImage" />
      </cc:Work>
    </rdf:RDF>
  </metadata>
  <defs
     id="defs5861" />
  <sodipodi:namedview
     pagecolor="#ffffff"
     bordercolor="#666666"
     borderopacity="1"
     objecttolerance="10"
     gridtolerance="10"
     guidetolerance="10"
     inkscape:pageopacity="0"
     inkscape:pageshadow="2"
     inkscape:window-width="1366"
     inkscape:window-height="744"
     id="namedview5859"
     showgrid="false"
     inkscape:zoom="4.3142857"
     inkscape:cx="93.118314"
     inkscape:cy="59.881327"
     inkscape:window-x="0"
     inkscape:window-y="24"
     inkscape:window-maximized="1"
     inkscape:current-layer="svglogo" />
  <style
     type="text/css"
     id="style5815">
                            .st0{fill:#00aeef;}
                            .st1{fill:#FFFFFF;fill-opacity:0;}
                        </style>
  <g
     id="g5817"
     transform="translate(0.5736468,-1.065343)">
    <g
       id="g5819"
       transform="translate(-7.7310315,-3.4919263)">
      <g
         id="dotsAll">
        <polygon
           id="dotStrategy"
           class="st0"
           points="74.3,24.3 78.5,23.5 78.5,19.4 74.3,20.2 "
           style="fill:#00aeef" />
        <polygon
           id="dotTech"
           class="st0"
           points="86.9,9.2 82.7,10 82.7,14.2 86.9,13.2 "
           style="fill:#00aeef" />
        <polygon
           id="dotCreative"
           class="st0"
           points="86.9,17.8 82.7,18.6 82.7,22.7 86.9,21.9 "
           style="fill:#00aeef" />
      </g>
      <g
         id="logoAll">
        <path
           d="m 27.24796,37.749091 2.786413,-0.780638 0,3.903199 3.715218,-0.780641 0,3.512876 -3.715218,0.780641 0,8.196716 c 0,0.780637 0.619203,1.170959 1.238406,1.170959 l 4.02482,-0.780641 0,3.122562 -4.02482,0.780638 c -2.16721,0.780638 -3.715216,-0.780638 -3.715216,-3.512881 l -0.309603,-15.61279 0,0 z"
           class="st0"
           id="t"
           inkscape:connector-curvature="0"
           style="fill:#00aeef" />
        <path
           id="e1"
           class="st0"
           d="m 41.697764,48.698067 3.11762,-0.716812 0,-1.194683 c 0,-0.477876 -0.415683,-0.71681 -0.831365,-0.71681 l -3.325461,0.71681 c -0.415682,0.23895 -0.831365,0.477876 -0.831365,0.955745 l 0,4.06193 c 0,0.477873 0.415683,0.716811 0.831365,0.716811 l 5.819555,-1.433624 0,2.150431 -5.819555,1.433623 c -1.454888,0.477876 -2.701936,-0.477874 -2.701936,-2.15043 l 0,-4.300864 c 0,-1.672559 1.247048,-3.10618 2.701936,-3.345117 l 3.533302,-0.716809 c 1.454889,-0.477876 2.701936,0.477873 2.701936,2.150428 l 0,3.10618 -4.988191,1.194683 -0.207831,-1.911492 0,0 0,0 z"
           inkscape:connector-curvature="0"
           style="fill:#00aeef" />
        <path
           id="c1"
           class="st0"
           d="m 57.412502,50.719022 -5.895022,1.408036 c -1.473754,0.469345 -2.736973,-0.469345 -2.736973,-2.112053 l 0,-4.224106 c 0,-1.642707 1.263219,-3.050743 2.736973,-3.285415 l 3.57912,-0.704018 c 1.473756,-0.469345 2.736975,0.469345 2.736975,2.112053 l 0,1.173363 -1.894828,0.469345 0,-1.173363 c 0,-0.469345 -0.421073,-0.704017 -0.842147,-0.704017 l -3.57912,0.704017 c -0.421072,0.234673 -0.842145,0.469345 -0.842145,0.93869 l 0,3.989433 c 0,0.469345 0.421073,0.704018 0.842145,0.704018 l 5.895022,-1.408035 c 0,-0.234673 0,2.112052 0,2.112052 z"
           inkscape:connector-curvature="0"
           style="fill:#00aeef" />
        <path
           id="t1"
           class="st0"
           d="m 59.767043,31.968082 2.357467,-0.264286 0.138948,3.288225 c -0.180287,2.278484 -0.08464,3.720185 -0.09916,5.495851 1.722931,-0.931284 3.808961,-0.872581 7.365022,0.276011 l -0.317708,9.466415 c -0.602171,0.393116 -1.204346,0.753375 -1.806516,0.03525 C 67.005021,49.788441 67.000222,43.099017 67.102272,42.983143 67.918934,42.055751 64.137378,42.373 64.731745,42.373 l -1.774988,0.50843 -0.138948,6.53622 -0.03155,0.685743 c -2.373996,0.472752 -2.541118,0.306493 -2.541118,-1.751182 z"
           inkscape:connector-curvature="0"
           style="fill:#00aeef"
           sodipodi:nodetypes="ccccccsscccccc" />
        <path
           id="e2"
           class="st0"
           d="m 76.985829,41.638044 3.272395,-0.725856 0,-1.20976 c 0,-0.483904 -0.436319,-0.725857 -0.872639,-0.725857 l -3.708715,0.725857 c -0.436319,0.241952 -0.872638,0.483903 -0.872638,0.967808 l 0,4.113186 c 0,0.483904 0.436319,0.725856 0.872638,0.725856 l 6.108471,-1.451713 0,2.17757 -6.108471,1.451712 c -1.527118,0.483904 -2.836076,-0.483903 -2.836076,-2.177569 l 0,-4.355138 c 0,-1.693664 1.308958,-3.145378 2.836076,-3.387331 l 3.708715,-0.725856 c 1.527118,-0.483905 2.836076,0.483904 2.836076,2.177571 l 0,3.145377 -5.235832,1.209761 c 0,-0.241952 0,-1.935618 0,-1.935618 z"
           inkscape:connector-curvature="0"
           style="fill:#00aeef" />
        <path
           id="l1"
           class="st0"
           d="m 86.99242,30.365734 2.515575,-0.524962 c -0.09802,3.467782 -0.117561,7.451668 0,12.336612 0.01258,0.524828 0.559017,0.787442 1.118034,0.787442 l 2.236066,-0.524961 0,2.36233 -2.236066,0.524962 C 88.66947,45.852119 86.99242,44.802195 86.99242,42.964826 l 0,-12.599092 z"
           inkscape:connector-curvature="0"
           style="fill:#00aeef"
           sodipodi:nodetypes="ccsccccscc" />
        <path
           id="c2"
           class="st0"
           d="m 107.17999,42.558039 -5.56178,0.938238 c -1.980701,0.607162 -3.678442,-0.07942 -3.678442,-2.204479 l 0,-5.464454 c 0,-2.125066 1.697741,-3.946551 3.678442,-4.250131 l 4.81027,-0.910743 c 1.9807,-0.607161 3.67844,0.607162 3.67844,2.732227 l -0.058,8.314155 -2.03896,0.544979 -0.4497,-8.251972 c -0.0331,-0.606127 -0.56591,-0.910743 -1.13183,-0.910743 l -4.81027,1.214324 c -0.56591,0.30358 -1.13183,0.607161 -1.13183,1.214323 l 0,5.160873 c 0,0.607162 4.66506,-0.760467 5.23098,-0.760467 l 1.05101,-0.343881 z"
           inkscape:connector-curvature="0"
           style="fill:#00aeef"
           sodipodi:nodetypes="ccssccsccsccssccc" />
        <path
           id="rightbracket"
           class="st0"
           d="m 111.7,13 c -0.4,0 -0.9,0.1 -1.3,0.2 l -19.4,3.7 0,4.3 20.2,-3.9 c 1.3,-0.2 2.5,0.6 2.5,2 l 0,23.1 c 0,1.3 -1.1,2.7 -2.5,3 l -28.6,5.5 c -0.1,1.7 -0.5,3.4 -1.4,4.5 l 30.9,-6 c 3.3,-0.6 5.9,-3.7 5.9,-7 l 0,-23.1 C 117.9,15.6 115.2,13 111.7,13 Z"
           inkscape:connector-curvature="0"
           style="fill:#00aeef" />
        <path
           id="leftbracket"
           class="st0"
           d="m 66,53.9 -39.3,7.6 c -1.3,0.2 -2.5,-0.6 -2.5,-2 l 0,-23.1 c 0,-1.3 1.1,-2.7 2.5,-3 l 43.4,-8.4 0,-0.1 0,-4.1 -44.2,8.5 C 22.5,29.9 20,33 20,36.4 l 0,23.1 c 0,3.5 2.8,6.2 6.2,6.2 0.4,0 0.9,-0.1 1.3,-0.2 l 38.5,-7.4 0,-4.2 0,0 z"
           inkscape:connector-curvature="0"
           style="fill:#00aeef" />
      </g>
    </g>
  </g>
  <g
     id="Layer_2">
    <path
       id="c_leftbracket"
       class="st1"
       d="M21.8,46c0.8,0,1.5,0.7,1.5,1.5S22.6,49,21.8,49s-1.5-0.7-1.5-1.5S21,46,21.8,46z" />
    <path
       id="c_e3"
       class="st1"
       d="M38.8,44c0.8,0,1.5,0.7,1.5,1.5S39.6,47,38.8,47s-1.5-0.7-1.5-1.5S38,44,38.8,44z" />
    <path
       id="c_n1"
       class="st1"
       d="M60.8,41c0.8,0,1.5,0.7,1.5,1.5S61.6,44,60.8,44s-1.5-0.7-1.5-1.5S60,41,60.8,41z" />
    <path
       id="c_j1"
       class="st1"
       d="M76.8,48c0.8,0,1.5,0.7,1.5,1.5S77.6,51,76.8,51s-1.5-0.7-1.5-1.5S76,48,76.8,48z" />
    <path
       id="c_i2"
       class="st1"
       d="M84.8,31c0.8,0,1.5,0.7,1.5,1.5S85.6,34,84.8,34s-1.5-0.7-1.5-1.5S84,31,84.8,31z" />
    <path
       id="c_n2"
       class="st1"
       d="M99.8,37c0.8,0,1.5,0.7,1.5,1.5s-0.7,1.5-1.5,1.5s-1.5-0.7-1.5-1.5S99,37,99.8,37z" />
    <path
       id="c_rightbracket"
       class="st1"
       d="M115.8,30c0.8,0,1.5,0.7,1.5,1.5s-0.7,1.5-1.5,1.5s-1.5-0.7-1.5-1.5S115,30,115.8,30z" />
    <path
       id="c_e1"
       class="st1"
       d="M30.8,21c0.8,0,1.5,0.7,1.5,1.5S31.6,24,30.8,24s-1.5-0.7-1.5-1.5S30,21,30.8,21z" />
    <path
       id="c_l1"
       class="st1"
       d="M37.8,19c0.8,0,1.5,0.7,1.5,1.5S38.6,22,37.8,22s-1.5-0.7-1.5-1.5S37,19,37.8,19z" />
    <path
       id="c_e2"
       class="st1"
       d="M43.8,18c0.8,0,1.5,0.7,1.5,1.5S44.6,21,43.8,21s-1.5-0.7-1.5-1.5S43,18,43.8,18z" />
    <path
       id="c_c1"
       class="st1"
       d="M51.8,17c0.8,0,1.5,0.7,1.5,1.5S52.6,20,51.8,20s-1.5-0.7-1.5-1.5S51,17,51.8,17z" />
    <path
       id="c_t1"
       class="st1"
       d="M57.8,15c0.8,0,1.5,0.7,1.5,1.5c0,0.8-0.7,1.5-1.5,1.5s-1.5-0.7-1.5-1.5C56.3,15.7,57,15,57.8,15z" />
    <path
       id="c_r1"
       class="st1"
       d="M64.8,14c0.8,0,1.5,0.7,1.5,1.5c0,0.8-0.7,1.5-1.5,1.5c-0.8,0-1.5-0.7-1.5-1.5C63.3,14.7,64,14,64.8,14z" />
    <path
       id="c_i1a"
       class="st1"
       d="M69.8,14c0.8,0,1.5,0.7,1.5,1.5c0,0.8-0.7,1.5-1.5,1.5s-1.5-0.7-1.5-1.5C68.3,14.7,69,14,69.8,14z" />
    <path
       id="c_i1b"
       class="st1"
       d="M69.8,10c0.8,0,1.5,0.7,1.5,1.5S70.6,13,69.8,13s-1.5-0.7-1.5-1.5S69,10,69.8,10z" />
    <path
       id="c_c2"
       class="st1"
       d="M75.8,12c0.8,0,1.5,0.7,1.5,1.5S76.6,15,75.8,15s-1.5-0.7-1.5-1.5S75,12,75.8,12z" />
  </g>
</svg>
