<svg id="Layer_1"  x="0px" y="0px" viewBox="0 0 50 50" style="enable-background:new 0 0 50 50;" >
                                    <style type="text/css">
                                        .ma0{fill:#FFFFFF;}
                                        .ma1{fill:#0099FF;}
                                        .ma2{fill:none;stroke:#FFFFFF;stroke-miterlimit:10;}
                                        .ma3{fill:none;stroke:#FFFFFF;stroke-miterlimit:10;}
                                    </style>
                                    <g>
                                        <rect id="market" x="18.2" y="27.5" transform="matrix(0.7071 -0.7071 0.7071 0.7071 -16.7584 22.2416)" class="ma0" width="0.4" height="7.7"></rect>
                                    </g>
                                    <g id="lightbulb">
                                        <path class="ma1" d="M24.9,15C19,15,14,19.9,14,25.9c0,4,2,8,5,10.3v3.4c0,0.9,1.3,0.9,2.3,0.9h7.3c0.9,0,2.4,0.1,2.4-0.9v-3.5&#10;		c3-2.2,4.9-6.2,4.9-10.2C35.9,19.9,30.8,15,24.9,15z M31.7,21.7v3.7c0,0.1-0.1,0.2-0.2,0.2s-0.2,0-0.3-0.1l-1-1l-5.3,5.3&#10;		c-0.1,0.1-0.1,0.1-0.2,0.1s-0.1,0-0.2-0.1l-2-2L19,31.3l-0.8-0.8l-0.7-0.7l4.9-4.9c0.1-0.1,0.1-0.1,0.2-0.1s0.1,0,0.2,0.1l2,2&#10;		l3.9-3.9l-1-1c-0.1-0.1-0.1-0.2-0.1-0.3c0-0.1,0.1-0.2,0.2-0.2h3.7c0.1,0,0.1,0,0.2,0.1C31.7,21.6,31.7,21.7,31.7,21.7z"></path>
                                        <path class="ma0" d="M29.2,43.6h-8.5c-0.4,0-0.7-0.3-0.7-0.7l0,0c0-0.4,0.3-0.7,0.7-0.7h8.5c0.4,0,0.7,0.3,0.7,0.7l0,0&#10;		C29.9,43.2,29.6,43.6,29.2,43.6z"></path>
                                        <path class="ma0" d="M28.7,45.8h-7.6c-0.4,0-0.7-0.3-0.7-0.7l0,0c0-0.4,0.3-0.7,0.7-0.7h7.6c0.4,0,0.7,0.3,0.7,0.7l0,0&#10;		C29.4,45.5,29.1,45.8,28.7,45.8z"></path>
                                        <path class="ma0" d="M27.5,48h-5.2c-0.4,0-0.7-0.3-0.7-0.7l0,0c0-0.4,0.3-0.7,0.7-0.7h5.2c0.4,0,0.7,0.3,0.7,0.7l0,0&#10;		C28.2,47.7,27.9,48,27.5,48z"></path>
                                    </g>
                                    <g id="lines">
                                        <line class="ma2" x1="24.9" y1="13.4" x2="24.9" y2="2.4"></line>
                                        <line class="ma3" x1="29.7" y1="14.3" x2="32.8" y2="6.8"></line>
                                        <line class="ma2" x1="34" y1="17" x2="43.8" y2="6.8"></line>
                                        <line class="ma3" x1="36.5" y1="21.5" x2="44.9" y2="18.7"></line>
                                        <line class="ma2" x1="37.2" y1="26.8" x2="49.1" y2="26.8"></line>
                                        <line class="ma3" x1="36.1" y1="31.8" x2="43.6" y2="34.5"></line>
                                        <line class="ma3" x1="20.3" y1="14.3" x2="17.2" y2="6.8"></line>
                                        <line class="ma2" x1="16" y1="17" x2="6.2" y2="6.8"></line>
                                        <line class="ma3" x1="13.5" y1="21.5" x2="5.1" y2="18.7"></line>
                                        <line class="ma2" x1="12.8" y1="26.8" x2="0.9" y2="26.8"></line>
                                        <line class="ma3" x1="13.9" y1="31.8" x2="6.4" y2="34.6"></line>
                                    </g>
                                </svg>
